<svg version="1.0" xmlns="http://www.w3.org/2000/svg" viewBox="0 0 1000 1000">
	<title>fire symbol</title>
	<path d="M117 853 c-12 -11 -8 -67 8 -121 16 -54 35 -69 35 -29 0 32 33 61 59 52 25 -8 29 -24 34 -140 2 -77 7 -98 32 -144 24 -44 31 -51 33 -33 2 13 9 34 16 47 12 24 14 20 25 -50 10 -61 19 -83 44 -112 17 -19 41 -56 54 -81 l22 -47 1 50 c0 63 32 196 54 229 9 15 25 26 36 26 22 0 50 -35 50 -65 1 -16 4 -15 18 10 12 22 17 57 18 135 1 58 2 110 3 117 1 7 19 18 41 24 43 13 64 4 80 -36 7 -15 9 -10 9 22 1 24 8 61 17 83 29 73 45 70 -339 70 -189 0 -347 -3 -350 -7z"/>
	<path d="M702 708 c-16 -16 -15 -38 3 -79 l14 -34 1 63 c0 34 -1 62 -3 62 -2 0 -8 -5 -15 -12z"/>
	<path d="M830 670 c0 -18 4 -29 10 -25 6 3 10 15 10 25 0 10 -4 22 -10 25 -6 4 -10 -7 -10 -25z"/>
	<path d="M202 653 c0 -15 -4 -45 -8 -65 -4 -23 -2 -38 4 -38 14 0 22 25 22 68 0 45 -17 78 -18 35z"/>
	<path d="M210 453 c0 -10 5 -25 10 -33 7 -11 10 -7 10 18 0 17 -4 32 -10 32 -5 0 -10 -8 -10 -17z"/>
	<path d="M572 342 c-3 -89 6 -118 30 -94 21 21 19 86 -4 135 l-23 48 -3 -89z"/>
</svg>