
<svg xmlns="http://www.w3.org/2000/svg">
  <symbol id="fire" viewBox="0 0 1000 1000">
    <title>fire symbol</title>
 	<path d="M117 853 c-12 -11 -8 -67 8 -121 16 -54 35 -69 35 -29 0 32 33 61 59 52 25 -8 29 -24 34 -140 2 -77 7 -98 32 -144 24 -44 31 -51 33 -33 2 13 9 34 16 47 12 24 14 20 25 -50 10 -61 19 -83 44 -112 17 -19 41 -56 54 -81 l22 -47 1 50 c0 63 32 196 54 229 9 15 25 26 36 26 22 0 50 -35 50 -65 1 -16 4 -15 18 10 12 22 17 57 18 135 1 58 2 110 3 117 1 7 19 18 41 24 43 13 64 4 80 -36 7 -15 9 -10 9 22 1 24 8 61 17 83 29 73 45 70 -339 70 -189 0 -347 -3 -350 -7z"/>
	<path d="M702 708 c-16 -16 -15 -38 3 -79 l14 -34 1 63 c0 34 -1 62 -3 62 -2 0 -8 -5 -15 -12z"/>
	<path d="M830 670 c0 -18 4 -29 10 -25 6 3 10 15 10 25 0 10 -4 22 -10 25 -6 4 -10 -7 -10 -25z"/>
	<path d="M202 653 c0 -15 -4 -45 -8 -65 -4 -23 -2 -38 4 -38 14 0 22 25 22 68 0 45 -17 78 -18 35z"/>
	<path d="M210 453 c0 -10 5 -25 10 -33 7 -11 10 -7 10 18 0 17 -4 32 -10 32 -5 0 -10 -8 -10 -17z"/>
	<path d="M572 342 c-3 -89 6 -118 30 -94 21 21 19 86 -4 135 l-23 48 -3 -89z"/>
  </symbol>

  <symbol id="grass" viewBox="0 0 1000 1000">
    <title>grass symbol</title>
    <path d="M358 643 c39 -2 72 -8 72 -14 0 -15 -61 -172 -74 -188 -8 -10 -6 -12 9 -10 20 4 74 90 75 119 1 40 22 90 38 90 20 0 42 -49 43 -96 0 -16 7 -45 14 -64 l13 -35 1 60 c0 33 -6 77 -13 97 l-13 37 71 4 c39 1 -14 3 -119 3 -104 0 -157 -2 -117 -3z"/>
    <path d="M466 569 c-11 -55 -6 -183 8 -229 14 -43 15 -39 15 108 1 143 -8 192 -23 121z"/>
 </symbol>

  <symbol id="oak" viewBox="0 0 1000 1000">
    <title>oak symbol</title>
    <path d="M434 807 c20 -82 27 -132 24 -188 l-3 -64 -152 -7 c-84 -4 -161 -11 -171 -17 -13 -7 -31 -7 -56 0 -27 8 -41 7 -52 -2 -22 -18 -17 -31 25 -70 l39 -37 -21 -20 c-22 -22 -17 -72 7 -72 8 0 15 -16 19 -40 7 -51 47 -90 95 -90 25 0 40 -7 54 -25 11 -14 30 -25 43 -25 12 0 36 -7 51 -15 16 -8 39 -15 51 -15 12 0 25 -4 28 -10 3 -5 30 -10 60 -10 41 0 59 5 72 19 13 14 23 17 33 11 23 -15 86 -12 100 5 7 8 27 15 46 15 21 0 38 7 46 19 7 10 22 20 32 22 11 2 24 17 29 33 5 16 18 37 28 47 11 11 19 28 19 38 0 11 4 21 9 23 5 2 11 21 13 43 2 22 10 47 20 55 26 24 32 56 11 65 -31 12 -136 27 -189 26 -28 -1 -70 6 -94 14 -23 8 -56 15 -73 15 l-30 0 7 102 c4 56 14 117 22 136 8 19 14 36 14 38 0 2 -36 4 -81 4 -79 0 -81 -1 -75 -23z"/>
  </symbol>

  <symbol id="rain" viewBox="0 0 1000 1000">
    <title>rain symbol</title>
    <path d="M501 781 c-12 -8 -13 -16 -2 -51 10 -35 15 -40 27 -29 9 8 14 25 12 47 -3 38 -14 47 -37 33z"/>
	<path d="M307 753 c-10 -10 -8 -51 2 -58 13 -7 34 33 27 51 -6 15 -18 18 -29 7z"/>
	<path d="M785 740 c-3 -6 -1 -26 5 -46 15 -43 33 -32 28 16 -3 34 -21 50 -33 30z"/>
	<path d="M631 681 c-10 -7 -11 -18 -4 -47 l9 -39 18 34 c15 28 16 36 4 47 -8 8 -18 10 -27 5z"/>
	<path d="M213 664 c-3 -8 0 -27 7 -42 l12 -27 14 34 c8 18 11 37 8 42 -9 14 -34 10 -41 -7z"/>
	<path d="M395 650 c-3 -5 0 -22 8 -37 14 -26 15 -26 26 -5 6 11 8 28 5 36 -7 18 -30 21 -39 6z"/>
	<path d="M735 630 c-4 -6 -3 -24 0 -42 5 -22 9 -27 16 -17 12 18 11 56 0 64 -5 3 -13 1 -16 -5z"/>
	<path d="M95 518 c-24 -18 -24 -21 -10 -49 13 -24 22 -29 51 -29 32 0 35 -2 27 -22 -12 -35 -7 -96 11 -123 24 -36 72 -58 111 -51 31 6 34 4 40 -23 15 -71 128 -130 224 -117 95 13 189 78 214 149 7 21 14 26 26 21 44 -19 88 3 117 58 28 55 11 115 -46 156 -30 22 -44 24 -238 32 -474 20 -499 20 -527 -2z"/>
  </symbol>

  <symbol id="shrug" viewBox="0 0 1000 1000">
    <title>shrub symbol</title>
    <path d="M103 693 c0 -25 18 -45 35 -38 11 4 13 0 9 -15 -4 -18 -3 -19 9 -9 23 19 25 6 7 -40 -16 -40 -16 -43 4 -69 21 -29 74 -42 96 -24 8 7 18 6 31 -4 25 -18 50 -18 66 1 10 12 15 12 35 -1 13 -8 31 -14 39 -12 9 2 22 -8 29 -22 9 -17 21 -25 38 -24 13 1 30 -7 37 -17 17 -25 25 -24 58 4 23 20 32 22 55 14 33 -13 55 2 76 51 7 17 20 32 28 32 9 0 15 9 15 23 0 35 16 51 52 52 25 0 34 5 36 20 3 11 10 24 18 28 8 4 14 14 14 21 0 8 7 16 15 20 8 3 15 10 15 16 0 7 -134 10 -408 10 -382 0 -409 -1 -409 -17z"/>
  </symbol>
  
  <symbol id="sun" viewBox="0 0 1000 1000">
    <title>sun symbol</title>
	<path d="M487 875 c8 -25 16 -45 18 -45 2 0 10 20 18 45 l16 45 -34 0 -34 0 16 -45z"/>
	<path d="M652 881 c-7 -19 -12 -46 -11 -60 1 -20 4 -16 15 19 17 54 14 90 -4 41z"/>
	<path d="M330 885 c0 -17 48 -70 56 -62 4 4 -6 22 -24 40 -18 17 -32 27 -32 22z"/>
	<path d="M785 840 c-9 -27 -15 -59 -13 -70 3 -18 8 -16 51 21 53 46 57 60 22 83 -36 24 -42 21 -60 -34z"/>
	<path d="M185 854 c-11 -8 -27 -20 -35 -25 -13 -8 -13 -10 2 -19 9 -6 38 -26 64 -46 25 -19 48 -33 51 -30 11 10 -40 136 -55 136 -4 0 -16 -8 -27 -16z"/>
	<path d="M393 759 c-28 -11 -74 -41 -102 -67 -157 -148 -114 -358 97 -470 104 -55 219 -39 311 44 69 62 95 120 95 214 0 218 -199 357 -401 279z"/>
	<path d="M872 652 c-24 -13 -41 -26 -38 -29 6 -6 74 26 82 39 11 17 -1 15 -44 -10z"/>
	<path d="M90 656 c0 -9 57 -36 77 -36 15 0 15 2 -3 14 -23 16 -74 32 -74 22z"/>
	<path d="M60 465 c0 -25 3 -45 6 -45 3 0 26 14 51 32 43 29 45 32 28 45 -11 7 -34 13 -52 13 -32 0 -33 -1 -33 -45z"/>
	<path d="M836 502 c-6 -9 96 -62 119 -62 10 0 15 11 15 35 l0 35 -64 0 c-36 0 -67 -4 -70 -8z"/>
	<path d="M845 350 c7 -12 85 -33 93 -26 6 7 -61 36 -83 36 -9 0 -13 -4 -10 -10z"/>
	<path d="M153 267 c-31 -21 -42 -37 -25 -37 4 0 23 13 42 30 41 34 30 39 -17 7z"/>
	<path d="M782 233 c2 -5 15 -30 29 -58 15 -27 30 -65 34 -82 3 -18 8 -33 10 -33 2 0 20 10 40 21 l37 22 -68 68 c-60 61 -93 85 -82 62z"/>
	<path d="M211 164 c-33 -37 -61 -71 -61 -75 0 -11 46 -23 63 -16 14 5 73 144 65 152 -3 3 -33 -24 -67 -61z"/>
	<path d="M669 108 c10 -34 23 -64 29 -66 12 -4 5 29 -21 91 -24 56 -28 45 -8 -25z"/>
	<path d="M462 83 l-21 -48 41 -3 c22 -2 42 -1 44 1 6 6 -29 97 -37 97 -3 0 -16 -21 -27 -47z"/>
  </symbol>
  
  <symbol id="wind" viewBox="0 0 1000 1000">
    <title>wind symbol</title>
    <path d="M153 672 c10 -11 50 -37 89 -57 87 -46 127 -45 243 8 44 20 100 39 125 43 35 6 40 9 25 15 -30 11 -100 10 -132 -2 -15 -6 -69 -14 -119 -19 -87 -8 -138 -2 -224 25 -25 8 -25 7 -7 -13z"/>
	<path d="M636 603 c-27 -10 -51 -22 -53 -28 -3 -11 156 -20 187 -10 21 7 27 30 11 39 -25 16 -99 15 -145 -1z"/>
	<path d="M380 493 c-100 -18 -185 -21 -220 -9 l-25 8 28 -30 c16 -16 51 -42 79 -57 49 -27 55 -27 147 -21 53 3 111 9 129 12 32 6 33 5 26 -20 -21 -85 79 -146 167 -100 56 29 77 128 38 177 -43 55 -191 71 -369 40z"/>
  </symbol>
</svg>