<svg version="1.0" xmlns="http://www.w3.org/2000/svg" viewBox="0 0 1000 1000">
 	<title>oak forest symbol</title>
 	<path d="M434 807 c20 -82 27 -132 24 -188 l-3 -64 -152 -7 c-84 -4 -161 -11 -171 -17 -13 -7 -31 -7 -56 0 -27 8 -41 7 -52 -2 -22 -18 -17 -31 25 -70 l39 -37 -21 -20 c-22 -22 -17 -72 7 -72 8 0 15 -16 19 -40 7 -51 47 -90 95 -90 25 0 40 -7 54 -25 11 -14 30 -25 43 -25 12 0 36 -7 51 -15 16 -8 39 -15 51 -15 12 0 25 -4 28 -10 3 -5 30 -10 60 -10 41 0 59 5 72 19 13 14 23 17 33 11 23 -15 86 -12 100 5 7 8 27 15 46 15 21 0 38 7 46 19 7 10 22 20 32 22 11 2 24 17 29 33 5 16 18 37 28 47 11 11 19 28 19 38 0 11 4 21 9 23 5 2 11 21 13 43 2 22 10 47 20 55 26 24 32 56 11 65 -31 12 -136 27 -189 26 -28 -1 -70 6 -94 14 -23 8 -56 15 -73 15 l-30 0 7 102 c4 56 14 117 22 136 8 19 14 36 14 38 0 2 -36 4 -81 4 -79 0 -81 -1 -75 -23z"/>
</svg>