<svg version="1.0" xmlns="http://www.w3.org/2000/svg" viewBox="0 0 1000 1000">
	<title>rain symbol</title>
	<path d="M501 781 c-12 -8 -13 -16 -2 -51 10 -35 15 -40 27 -29 9 8 14 25 12 47 -3 38 -14 47 -37 33z"/>
	<path d="M307 753 c-10 -10 -8 -51 2 -58 13 -7 34 33 27 51 -6 15 -18 18 -29 7z"/>
	<path d="M785 740 c-3 -6 -1 -26 5 -46 15 -43 33 -32 28 16 -3 34 -21 50 -33 30z"/>
	<path d="M631 681 c-10 -7 -11 -18 -4 -47 l9 -39 18 34 c15 28 16 36 4 47 -8 8 -18 10 -27 5z"/>
	<path d="M213 664 c-3 -8 0 -27 7 -42 l12 -27 14 34 c8 18 11 37 8 42 -9 14 -34 10 -41 -7z"/>
	<path d="M395 650 c-3 -5 0 -22 8 -37 14 -26 15 -26 26 -5 6 11 8 28 5 36 -7 18 -30 21 -39 6z"/>
	<path d="M735 630 c-4 -6 -3 -24 0 -42 5 -22 9 -27 16 -17 12 18 11 56 0 64 -5 3 -13 1 -16 -5z"/>
	<path d="M95 518 c-24 -18 -24 -21 -10 -49 13 -24 22 -29 51 -29 32 0 35 -2 27 -22 -12 -35 -7 -96 11 -123 24 -36 72 -58 111 -51 31 6 34 4 40 -23 15 -71 128 -130 224 -117 95 13 189 78 214 149 7 21 14 26 26 21 44 -19 88 3 117 58 28 55 11 115 -46 156 -30 22 -44 24 -238 32 -474 20 -499 20 -527 -2z"/>
</svg>