<svg version="1.0" xmlns="http://www.w3.org/2000/svg" viewBox="0 0 1000 1000">
 <title>chaparral/coast sage scrub symbol</title>
 <path d="M103 693 c0 -25 18 -45 35 -38 11 4 13 0 9 -15 -4 -18 -3 -19 9 -9 23 19 25 6 7 -40 -16 -40 -16 -43 4 -69 21 -29 74 -42 96 -24 8 7 18 6 31 -4 25 -18 50 -18 66 1 10 12 15 12 35 -1 13 -8 31 -14 39 -12 9 2 22 -8 29 -22 9 -17 21 -25 38 -24 13 1 30 -7 37 -17 17 -25 25 -24 58 4 23 20 32 22 55 14 33 -13 55 2 76 51 7 17 20 32 28 32 9 0 15 9 15 23 0 35 16 51 52 52 25 0 34 5 36 20 3 11 10 24 18 28 8 4 14 14 14 21 0 8 7 16 15 20 8 3 15 10 15 16 0 7 -134 10 -408 10 -382 0 -409 -1 -409 -17z"/>
</svg>