<svg version="1.0" xmlns="http://www.w3.org/2000/svg" viewBox="0 0 1000 1000">
	<title>sun symbol</title>
	<path d="M487 875 c8 -25 16 -45 18 -45 2 0 10 20 18 45 l16 45 -34 0 -34 0 16 -45z"/>
	<path d="M652 881 c-7 -19 -12 -46 -11 -60 1 -20 4 -16 15 19 17 54 14 90 -4 41z"/>
	<path d="M330 885 c0 -17 48 -70 56 -62 4 4 -6 22 -24 40 -18 17 -32 27 -32 22z"/>
	<path d="M785 840 c-9 -27 -15 -59 -13 -70 3 -18 8 -16 51 21 53 46 57 60 22 83 -36 24 -42 21 -60 -34z"/>
	<path d="M185 854 c-11 -8 -27 -20 -35 -25 -13 -8 -13 -10 2 -19 9 -6 38 -26 64 -46 25 -19 48 -33 51 -30 11 10 -40 136 -55 136 -4 0 -16 -8 -27 -16z"/>
	<path d="M393 759 c-28 -11 -74 -41 -102 -67 -157 -148 -114 -358 97 -470 104 -55 219 -39 311 44 69 62 95 120 95 214 0 218 -199 357 -401 279z"/>
	<path d="M872 652 c-24 -13 -41 -26 -38 -29 6 -6 74 26 82 39 11 17 -1 15 -44 -10z"/>
	<path d="M90 656 c0 -9 57 -36 77 -36 15 0 15 2 -3 14 -23 16 -74 32 -74 22z"/>
	<path d="M60 465 c0 -25 3 -45 6 -45 3 0 26 14 51 32 43 29 45 32 28 45 -11 7 -34 13 -52 13 -32 0 -33 -1 -33 -45z"/>
	<path d="M836 502 c-6 -9 96 -62 119 -62 10 0 15 11 15 35 l0 35 -64 0 c-36 0 -67 -4 -70 -8z"/>
	<path d="M845 350 c7 -12 85 -33 93 -26 6 7 -61 36 -83 36 -9 0 -13 -4 -10 -10z"/>
	<path d="M153 267 c-31 -21 -42 -37 -25 -37 4 0 23 13 42 30 41 34 30 39 -17 7z"/>
	<path d="M782 233 c2 -5 15 -30 29 -58 15 -27 30 -65 34 -82 3 -18 8 -33 10 -33 2 0 20 10 40 21 l37 22 -68 68 c-60 61 -93 85 -82 62z"/>
	<path d="M211 164 c-33 -37 -61 -71 -61 -75 0 -11 46 -23 63 -16 14 5 73 144 65 152 -3 3 -33 -24 -67 -61z"/>
	<path d="M669 108 c10 -34 23 -64 29 -66 12 -4 5 29 -21 91 -24 56 -28 45 -8 -25z"/>
	<path d="M462 83 l-21 -48 41 -3 c22 -2 42 -1 44 1 6 6 -29 97 -37 97 -3 0 -16 -21 -27 -47z"/>
</svg>