<svg version="1.0" xmlns="http://www.w3.org/2000/svg" viewBox="0 0 1000 1000">
	<title>wind symbol</title>
	<path d="M153 672 c10 -11 50 -37 89 -57 87 -46 127 -45 243 8 44 20 100 39 125 43 35 6 40 9 25 15 -30 11 -100 10 -132 -2 -15 -6 -69 -14 -119 -19 -87 -8 -138 -2 -224 25 -25 8 -25 7 -7 -13z"/>
	<path d="M636 603 c-27 -10 -51 -22 -53 -28 -3 -11 156 -20 187 -10 21 7 27 30 11 39 -25 16 -99 15 -145 -1z"/>
	<path d="M380 493 c-100 -18 -185 -21 -220 -9 l-25 8 28 -30 c16 -16 51 -42 79 -57 49 -27 55 -27 147 -21 53 3 111 9 129 12 32 6 33 5 26 -20 -21 -85 79 -146 167 -100 56 29 77 128 38 177 -43 55 -191 71 -369 40z"/>
</svg>